<?xml version="1.0" standalone="no"?>
<!DOCTYPE svg PUBLIC "-//W3C//DTD SVG 20010904//EN"
 "http://www.w3.org/TR/2001/REC-SVG-20010904/DTD/svg10.dtd">
<svg version="1.0" xmlns="http://www.w3.org/2000/svg"
 width="300.000000pt" height="300.000000pt" viewBox="0 0 300.000000 300.000000"
 preserveAspectRatio="xMidYMid meet">
<metadata>
Created by potrace 1.10, written by Peter Selinger 2001-2011
</metadata>
<g transform="translate(0.000000,300.000000) scale(0.100000,-0.100000)"
fill="#000000" stroke="none">
<path d="M1383 2703 c-16 -6 -19 -263 -4 -263 18 0 22 19 22 119 0 55 4 103
10 106 5 4 9 -40 9 -110 0 -103 2 -116 16 -111 9 3 20 6 26 6 5 0 0 15 -11 34
-27 43 -28 60 -2 46 11 -5 28 -10 38 -10 13 0 9 6 -14 21 -25 16 -33 28 -33
49 0 16 5 32 11 35 6 4 8 13 5 21 -4 11 13 14 93 14 55 0 106 3 115 6 13 5 16
-10 18 -107 3 -99 5 -114 21 -117 15 -3 17 8 17 128 0 112 -2 132 -16 137 -10
4 -22 -1 -29 -10 -17 -24 -242 -25 -251 -2 -6 15 -19 18 -41 8z"/>
<path d="M1476 2628 c3 -4 -3 -9 -13 -9 -10 -1 0 -5 22 -8 l40 -6 -3 -62 c-3
-61 -2 -63 21 -63 21 0 25 6 29 34 2 19 1 43 -3 53 -11 30 1 43 40 43 l36 0
-30 16 c-30 16 -149 18 -139 2z"/>
<path d="M1650 2581 c0 -10 -10 -26 -22 -34 -19 -13 -20 -16 -6 -16 18 -1 48
35 48 56 0 7 -4 13 -10 13 -5 0 -10 -8 -10 -19z"/>
<path d="M1584 2506 c-7 -19 13 -56 30 -56 23 0 26 27 7 49 -22 25 -30 26 -37
7z"/>
<path d="M1281 2391 c-66 -32 -92 -64 -98 -125 -5 -40 -3 -46 13 -46 15 0 20
8 22 37 3 48 25 81 65 99 18 7 43 22 56 32 39 31 3 33 -58 3z"/>
<path d="M1740 2408 c0 -8 24 -26 54 -40 44 -22 56 -34 66 -63 7 -20 10 -47 7
-61 -3 -20 0 -24 19 -24 21 0 24 5 24 40 0 59 -23 96 -78 124 -68 34 -92 40
-92 24z"/>
<path d="M1180 2189 c0 -13 5 -267 10 -564 5 -297 10 -700 11 -895 2 -393 1
-392 67 -435 111 -73 437 -74 543 -2 69 47 71 55 75 268 2 107 5 309 8 449 3
140 9 464 12 720 4 256 8 468 10 471 3 6 -232 0 -251 -6 -5 -2 43 -4 107 -4
89 -1 116 -4 113 -13 -4 -14 -11 -387 -20 -1068 -3 -228 -8 -439 -10 -467 -4
-37 -2 -53 6 -53 25 0 -26 -41 -64 -52 -22 -7 -35 -14 -29 -16 5 -1 26 4 46
12 l36 15 0 -30 c0 -35 -35 -75 -74 -85 -25 -6 -34 -23 -20 -37 12 -12 106 43
100 58 -3 8 -1 17 4 20 14 9 12 -10 -7 -78 -9 -33 -23 -61 -32 -65 -9 -3 -23
-13 -31 -22 -19 -20 -85 -40 -170 -51 -68 -9 -239 -1 -221 10 6 4 -5 7 -24 7
-22 0 -40 7 -48 19 -8 10 -19 15 -25 11 -7 -4 -12 -1 -12 7 0 8 -11 18 -24 21
-19 5 -27 16 -34 48 -6 24 -13 54 -17 68 l-7 25 20 -22 c11 -13 25 -23 31 -23
18 0 13 24 -9 43 -12 10 -20 29 -20 47 0 35 -3 34 45 14 20 -8 42 -13 47 -12
6 2 -7 9 -29 16 -39 12 -99 62 -73 62 10 0 12 83 6 457 -10 745 -17 1097 -21
1110 -5 16 18 20 132 19 55 -1 99 3 96 7 -3 4 -53 7 -111 7 -59 -1 -115 1
-124 5 -14 6 -18 2 -18 -16z"/>
<path d="M1460 2192 c0 -10 98 -14 104 -4 3 5 -20 9 -49 10 -30 1 -55 -2 -55
-6z"/>
<path d="M1330 1930 c0 -33 4 -60 10 -60 6 0 10 11 10 25 0 14 4 25 9 25 13 0
22 30 16 51 -4 11 -15 19 -26 19 -17 0 -19 -7 -19 -60z"/>
<path d="M1440 1930 c0 -62 19 -86 22 -27 0 17 2 44 2 60 1 16 -4 27 -11 27
-9 0 -13 -18 -13 -60z"/>
<path d="M1555 1978 c-25 -14 -35 -29 -28 -41 3 -5 12 1 20 12 19 27 68 28 83
2 16 -31 12 -59 -12 -75 -30 -21 -44 -20 -69 5 -26 26 -35 19 -12 -8 22 -25
81 -24 100 3 16 23 17 65 1 87 -17 22 -59 29 -83 15z"/>
<path d="M1390 1945 c-8 -21 -8 -36 -1 -52 12 -26 26 -30 35 -8 3 9 0 15 -9
15 -8 0 -15 5 -15 11 0 6 7 9 15 5 19 -7 19 14 1 40 -14 18 -15 18 -26 -11z"/>
<path d="M1664 1961 c-2 -2 -4 -22 -4 -43 0 -44 17 -52 23 -10 4 25 4 25 6 -5
0 -18 6 -33 12 -33 6 0 9 9 6 19 -2 10 -1 25 4 32 6 10 9 3 9 -19 0 -19 4 -31
10 -27 9 6 11 44 4 75 -3 14 -59 22 -70 11z"/>
<path d="M1484 1946 c-8 -22 0 -69 13 -73 7 -3 11 11 11 41 -1 45 -13 61 -24
32z"/>
<path d="M1307 1834 c-12 -13 -7 -91 6 -103 17 -13 27 -4 26 23 0 21 -1 21 -9
1 -7 -15 -9 -9 -9 25 -1 34 2 41 10 30 8 -12 10 -12 7 4 -3 21 -20 31 -31 20z"/>
<path d="M1450 1775 c0 -53 13 -74 23 -37 4 16 5 16 6 0 0 -10 8 -18 16 -18
13 0 14 4 5 21 -7 11 -9 32 -6 45 7 25 -8 34 -17 12 -3 -7 -6 -3 -6 10 -1 12
-5 22 -11 22 -5 0 -10 -25 -10 -55z"/>
<path d="M1612 1778 c3 -46 6 -53 26 -56 19 -3 22 1 22 29 0 34 -14 31 -23 -6
-3 -11 -5 3 -5 30 0 28 2 42 5 33 6 -24 23 -23 23 2 0 15 -7 20 -26 20 -24 0
-25 -2 -22 -52z"/>
<path d="M1354 1807 c-11 -30 0 -82 19 -85 16 -3 18 3 15 44 -3 47 -22 70 -34
41z"/>
<path d="M1673 1805 c-8 -22 6 -33 17 -15 8 12 10 12 10 1 0 -8 -7 -19 -17
-26 -21 -15 -10 -45 16 -45 17 0 19 6 16 43 -4 59 -3 57 -20 57 -9 0 -18 -7
-22 -15z"/>
<path d="M1730 1796 c0 -14 5 -26 10 -26 6 0 10 -8 10 -17 0 -15 -2 -16 -10
-3 -8 13 -10 13 -10 -1 0 -21 9 -29 26 -22 19 7 18 42 -1 49 -8 4 -15 10 -15
15 0 4 7 6 16 2 12 -4 15 -2 12 8 -3 8 -12 15 -21 17 -12 3 -17 -4 -17 -22z"/>
<path d="M1400 1765 c0 -38 3 -45 20 -45 13 0 20 6 19 18 0 10 -3 12 -6 4 -7
-19 -23 -4 -23 23 0 27 16 42 23 23 3 -8 6 -6 6 5 1 11 -6 17 -19 17 -17 0
-20 -7 -20 -45z"/>
<path d="M1517 1768 c8 -59 13 -61 13 -5 0 26 -4 47 -9 47 -5 0 -7 -19 -4 -42z"/>
<path d="M1544 1796 c-3 -8 -4 -27 -2 -43 2 -20 9 -29 26 -31 15 -2 22 2 22
12 0 19 -16 21 -23 4 -3 -8 -6 -6 -6 5 -1 9 6 17 14 17 9 0 15 9 15 25 0 18
-5 25 -20 25 -11 0 -23 -6 -26 -14z"/>
<path d="M1330 1706 c0 -16 37 -36 63 -35 18 0 25 3 17 6 -8 3 -19 12 -23 19
-7 12 -57 21 -57 10z"/>
<path d="M1437 1704 c-19 -19 -5 -33 33 -31 24 1 40 6 40 14 0 6 -9 11 -20 10
-11 -1 -20 -6 -20 -11 0 -5 -6 -2 -13 8 -7 9 -16 14 -20 10z"/>
<path d="M1660 1696 c-6 -8 -19 -12 -28 -9 -13 4 -14 2 -4 -4 7 -6 34 -11 60
-12 41 -1 48 2 49 19 1 11 -2 20 -8 20 -5 0 -8 -5 -6 -11 1 -6 -4 -14 -11 -16
-8 -3 -10 1 -6 11 8 21 -5 20 -23 -1 -14 -17 -14 -17 -9 0 7 21 2 22 -14 3z"/>
<path d="M1526 1691 c-6 -9 18 -26 34 -25 8 1 23 2 33 3 9 0 17 7 17 14 0 12
-77 19 -84 8z"/>
<path d="M1318 1183 l6 -28 7 25 c7 24 7 24 8 3 1 -13 4 -23 9 -24 4 0 17 -2
30 -5 19 -3 22 0 21 24 l-1 27 -8 -25 -8 -25 -1 24 c-1 17 -5 21 -17 17 -8 -3
-12 -2 -9 4 3 6 -5 10 -18 10 -21 0 -24 -4 -19 -27z"/>
<path d="M1710 1197 c0 -9 -9 -21 -20 -27 -16 -8 -20 -8 -20 4 0 8 8 17 18 19
9 3 5 4 -10 4 -21 -1 -28 -7 -29 -22 0 -19 -1 -19 -9 3 -5 12 -12 22 -16 22
-3 0 -4 -6 -1 -14 6 -15 -19 -30 -34 -20 -5 3 -9 12 -9 20 0 8 -5 12 -11 9 -6
-4 -8 -13 -5 -21 3 -8 2 -14 -3 -14 -5 0 -12 10 -16 23 l-7 22 -8 -25 c-8 -25
-8 -25 -9 -2 -1 13 -5 21 -11 17 -5 -3 -7 -12 -3 -20 3 -8 0 -15 -7 -15 -6 0
-9 -4 -6 -8 4 -7 64 -8 74 -2 1 1 34 2 72 3 39 0 70 4 70 8 0 5 7 6 16 2 14
-5 15 -3 4 18 -17 33 -20 35 -20 16z"/>
<path d="M1740 1201 c0 -20 13 -41 21 -35 15 9 10 44 -6 44 -8 0 -15 -4 -15
-9z"/>
<path d="M1454 684 c3 -8 2 -12 -3 -9 -5 3 -12 2 -15 -3 -2 -4 4 -13 15 -20
17 -11 19 -9 19 18 0 16 -5 30 -11 30 -6 0 -8 -7 -5 -16z"/>
<path d="M1530 666 c0 -19 5 -24 20 -23 20 1 24 26 5 39 -18 13 -25 9 -25 -16z"/>
<path d="M1580 654 c0 -33 33 -30 38 4 3 17 -2 22 -17 22 -16 0 -21 -6 -21
-26z"/>
<path d="M1460 498 c0 -10 162 -9 215 0 26 5 -5 8 -87 7 -71 0 -128 -3 -128
-7z"/>
<path d="M1280 455 c0 -10 73 -35 99 -34 20 1 21 2 6 6 -11 2 -37 11 -58 19
-41 15 -47 17 -47 9z"/>
<path d="M1670 423 c-19 -3 -39 -9 -45 -14 -10 -11 44 -4 95 12 28 8 11 9 -50
2z"/>
<path d="M1400 390 c0 -15 7 -20 28 -20 15 0 57 -3 95 -7 58 -5 67 -4 67 11 0
13 -12 16 -79 16 -44 0 -83 5 -86 10 -10 17 -25 11 -25 -10z"/>
</g>
</svg>
